<mxfile host="app.diagrams.net" modified="2023-10-24T16:02:53.265Z" agent="Mozilla/5.0 (Windows NT 10.0; Win64; x64) AppleWebKit/537.36 (KHTML, like Gecko) Chrome/118.0.0.0 Safari/537.36" etag="WCBR6YSGz93evnCzKu3m" version="22.0.6" type="github">
  <diagram name="Trang-1" id="kK7h609uTIXyCF9aNx8U">
    <mxGraphModel dx="1518" dy="666" grid="1" gridSize="10" guides="1" tooltips="1" connect="1" arrows="1" fold="1" page="1" pageScale="1" pageWidth="850" pageHeight="1100" math="0" shadow="0">
      <root>
        <mxCell id="0" />
        <mxCell id="1" parent="0" />
        <mxCell id="5pSD_8L-B1dr4GUslqK0-8" value="" style="rounded=0;whiteSpace=wrap;html=1;" parent="1" vertex="1">
          <mxGeometry x="10" y="30" width="820" height="1820" as="geometry" />
        </mxCell>
        <mxCell id="5pSD_8L-B1dr4GUslqK0-1" value="" style="rounded=0;whiteSpace=wrap;html=1;" parent="1" vertex="1">
          <mxGeometry x="40" y="40" width="760" height="60" as="geometry" />
        </mxCell>
        <mxCell id="5pSD_8L-B1dr4GUslqK0-2" value="Logo" style="rounded=0;whiteSpace=wrap;html=1;" parent="1" vertex="1">
          <mxGeometry x="40" y="40" width="120" height="60" as="geometry" />
        </mxCell>
        <mxCell id="5pSD_8L-B1dr4GUslqK0-3" value="Trang Chủ" style="rounded=0;whiteSpace=wrap;html=1;" parent="1" vertex="1">
          <mxGeometry x="160" y="40" width="120" height="60" as="geometry" />
        </mxCell>
        <mxCell id="5pSD_8L-B1dr4GUslqK0-4" value="Giá Vé" style="rounded=0;whiteSpace=wrap;html=1;" parent="1" vertex="1">
          <mxGeometry x="280" y="40" width="120" height="60" as="geometry" />
        </mxCell>
        <mxCell id="5pSD_8L-B1dr4GUslqK0-5" value="Giới Thiệu" style="rounded=0;whiteSpace=wrap;html=1;" parent="1" vertex="1">
          <mxGeometry x="400" y="40" width="120" height="60" as="geometry" />
        </mxCell>
        <mxCell id="5pSD_8L-B1dr4GUslqK0-6" value="Đăng ký" style="rounded=0;whiteSpace=wrap;html=1;" parent="1" vertex="1">
          <mxGeometry x="620" y="40" width="90" height="60" as="geometry" />
        </mxCell>
        <mxCell id="5pSD_8L-B1dr4GUslqK0-7" value="Đăng nhập" style="rounded=0;whiteSpace=wrap;html=1;" parent="1" vertex="1">
          <mxGeometry x="710" y="40" width="90" height="60" as="geometry" />
        </mxCell>
        <mxCell id="5pSD_8L-B1dr4GUslqK0-9" value="&lt;font style=&quot;font-size: 36px;&quot;&gt;Slide&lt;/font&gt;" style="rounded=0;whiteSpace=wrap;html=1;" parent="1" vertex="1">
          <mxGeometry x="40" y="130" width="760" height="380" as="geometry" />
        </mxCell>
        <mxCell id="5pSD_8L-B1dr4GUslqK0-10" value="" style="triangle;whiteSpace=wrap;html=1;" parent="1" vertex="1">
          <mxGeometry x="760" y="280" width="30" height="60" as="geometry" />
        </mxCell>
        <mxCell id="5pSD_8L-B1dr4GUslqK0-12" value="" style="triangle;whiteSpace=wrap;html=1;rotation=-180;" parent="1" vertex="1">
          <mxGeometry x="60" y="280" width="30" height="60" as="geometry" />
        </mxCell>
        <mxCell id="vLwnTfpbYXdkEzxnkrgM-1" value="Phim đang Chiếu" style="rounded=0;whiteSpace=wrap;html=1;" vertex="1" parent="1">
          <mxGeometry x="40" y="560" width="120" height="40" as="geometry" />
        </mxCell>
        <mxCell id="vLwnTfpbYXdkEzxnkrgM-2" value="" style="rounded=0;whiteSpace=wrap;html=1;" vertex="1" parent="1">
          <mxGeometry x="40" y="620" width="650" height="540" as="geometry" />
        </mxCell>
        <mxCell id="vLwnTfpbYXdkEzxnkrgM-3" value="Phim sắp Chiếu" style="rounded=0;whiteSpace=wrap;html=1;" vertex="1" parent="1">
          <mxGeometry x="40" y="1220" width="120" height="40" as="geometry" />
        </mxCell>
        <mxCell id="vLwnTfpbYXdkEzxnkrgM-4" value="&lt;font style=&quot;font-size: 18px;&quot;&gt;Ảnh&lt;/font&gt;" style="rounded=0;whiteSpace=wrap;html=1;" vertex="1" parent="1">
          <mxGeometry x="40" y="620" width="140" height="130" as="geometry" />
        </mxCell>
        <mxCell id="vLwnTfpbYXdkEzxnkrgM-5" value="Mô tả" style="rounded=0;whiteSpace=wrap;html=1;" vertex="1" parent="1">
          <mxGeometry x="40" y="760" width="70" height="30" as="geometry" />
        </mxCell>
        <mxCell id="vLwnTfpbYXdkEzxnkrgM-6" value="Ngày Chiếu" style="rounded=0;whiteSpace=wrap;html=1;" vertex="1" parent="1">
          <mxGeometry x="110" y="760" width="70" height="30" as="geometry" />
        </mxCell>
        <mxCell id="vLwnTfpbYXdkEzxnkrgM-7" value="Tên Phim" style="rounded=0;whiteSpace=wrap;html=1;" vertex="1" parent="1">
          <mxGeometry x="40" y="790" width="140" height="30" as="geometry" />
        </mxCell>
        <mxCell id="vLwnTfpbYXdkEzxnkrgM-8" value="&lt;font style=&quot;font-size: 18px;&quot;&gt;Ảnh&lt;/font&gt;" style="rounded=0;whiteSpace=wrap;html=1;" vertex="1" parent="1">
          <mxGeometry x="200" y="620" width="140" height="130" as="geometry" />
        </mxCell>
        <mxCell id="vLwnTfpbYXdkEzxnkrgM-9" value="Mô tả" style="rounded=0;whiteSpace=wrap;html=1;" vertex="1" parent="1">
          <mxGeometry x="200" y="760" width="70" height="30" as="geometry" />
        </mxCell>
        <mxCell id="vLwnTfpbYXdkEzxnkrgM-10" value="Ngày Chiếu" style="rounded=0;whiteSpace=wrap;html=1;" vertex="1" parent="1">
          <mxGeometry x="270" y="760" width="70" height="30" as="geometry" />
        </mxCell>
        <mxCell id="vLwnTfpbYXdkEzxnkrgM-11" value="Tên Phim" style="rounded=0;whiteSpace=wrap;html=1;" vertex="1" parent="1">
          <mxGeometry x="200" y="790" width="140" height="30" as="geometry" />
        </mxCell>
        <mxCell id="vLwnTfpbYXdkEzxnkrgM-12" value="&lt;font style=&quot;font-size: 18px;&quot;&gt;Ảnh&lt;/font&gt;" style="rounded=0;whiteSpace=wrap;html=1;" vertex="1" parent="1">
          <mxGeometry x="360" y="620" width="140" height="130" as="geometry" />
        </mxCell>
        <mxCell id="vLwnTfpbYXdkEzxnkrgM-13" value="Mô tả" style="rounded=0;whiteSpace=wrap;html=1;" vertex="1" parent="1">
          <mxGeometry x="360" y="760" width="70" height="30" as="geometry" />
        </mxCell>
        <mxCell id="vLwnTfpbYXdkEzxnkrgM-14" value="Ngày Chiếu" style="rounded=0;whiteSpace=wrap;html=1;" vertex="1" parent="1">
          <mxGeometry x="430" y="760" width="70" height="30" as="geometry" />
        </mxCell>
        <mxCell id="vLwnTfpbYXdkEzxnkrgM-15" value="Tên Phim" style="rounded=0;whiteSpace=wrap;html=1;" vertex="1" parent="1">
          <mxGeometry x="360" y="790" width="140" height="30" as="geometry" />
        </mxCell>
        <mxCell id="vLwnTfpbYXdkEzxnkrgM-16" value="&lt;font style=&quot;font-size: 18px;&quot;&gt;Ảnh&lt;/font&gt;" style="rounded=0;whiteSpace=wrap;html=1;" vertex="1" parent="1">
          <mxGeometry x="520" y="620" width="140" height="130" as="geometry" />
        </mxCell>
        <mxCell id="vLwnTfpbYXdkEzxnkrgM-17" value="Mô tả" style="rounded=0;whiteSpace=wrap;html=1;" vertex="1" parent="1">
          <mxGeometry x="520" y="760" width="70" height="30" as="geometry" />
        </mxCell>
        <mxCell id="vLwnTfpbYXdkEzxnkrgM-18" value="Ngày Chiếu" style="rounded=0;whiteSpace=wrap;html=1;" vertex="1" parent="1">
          <mxGeometry x="590" y="760" width="70" height="30" as="geometry" />
        </mxCell>
        <mxCell id="vLwnTfpbYXdkEzxnkrgM-19" value="Tên Phim" style="rounded=0;whiteSpace=wrap;html=1;" vertex="1" parent="1">
          <mxGeometry x="520" y="790" width="140" height="30" as="geometry" />
        </mxCell>
        <mxCell id="vLwnTfpbYXdkEzxnkrgM-20" value="&lt;font style=&quot;font-size: 18px;&quot;&gt;Ảnh&lt;/font&gt;" style="rounded=0;whiteSpace=wrap;html=1;" vertex="1" parent="1">
          <mxGeometry x="40" y="840" width="140" height="130" as="geometry" />
        </mxCell>
        <mxCell id="vLwnTfpbYXdkEzxnkrgM-21" value="Mô tả" style="rounded=0;whiteSpace=wrap;html=1;" vertex="1" parent="1">
          <mxGeometry x="40" y="980" width="70" height="30" as="geometry" />
        </mxCell>
        <mxCell id="vLwnTfpbYXdkEzxnkrgM-22" value="Ngày Chiếu" style="rounded=0;whiteSpace=wrap;html=1;" vertex="1" parent="1">
          <mxGeometry x="110" y="980" width="70" height="30" as="geometry" />
        </mxCell>
        <mxCell id="vLwnTfpbYXdkEzxnkrgM-23" value="Tên Phim" style="rounded=0;whiteSpace=wrap;html=1;" vertex="1" parent="1">
          <mxGeometry x="40" y="1010" width="140" height="30" as="geometry" />
        </mxCell>
        <mxCell id="vLwnTfpbYXdkEzxnkrgM-24" value="&lt;font style=&quot;font-size: 18px;&quot;&gt;Ảnh&lt;/font&gt;" style="rounded=0;whiteSpace=wrap;html=1;" vertex="1" parent="1">
          <mxGeometry x="200" y="840" width="140" height="130" as="geometry" />
        </mxCell>
        <mxCell id="vLwnTfpbYXdkEzxnkrgM-25" value="Mô tả" style="rounded=0;whiteSpace=wrap;html=1;" vertex="1" parent="1">
          <mxGeometry x="200" y="980" width="70" height="30" as="geometry" />
        </mxCell>
        <mxCell id="vLwnTfpbYXdkEzxnkrgM-26" value="Ngày Chiếu" style="rounded=0;whiteSpace=wrap;html=1;" vertex="1" parent="1">
          <mxGeometry x="270" y="980" width="70" height="30" as="geometry" />
        </mxCell>
        <mxCell id="vLwnTfpbYXdkEzxnkrgM-27" value="Tên Phim" style="rounded=0;whiteSpace=wrap;html=1;" vertex="1" parent="1">
          <mxGeometry x="200" y="1010" width="140" height="30" as="geometry" />
        </mxCell>
        <mxCell id="vLwnTfpbYXdkEzxnkrgM-28" value="&lt;font style=&quot;font-size: 18px;&quot;&gt;Ảnh&lt;/font&gt;" style="rounded=0;whiteSpace=wrap;html=1;" vertex="1" parent="1">
          <mxGeometry x="360" y="840" width="140" height="130" as="geometry" />
        </mxCell>
        <mxCell id="vLwnTfpbYXdkEzxnkrgM-29" value="Mô tả" style="rounded=0;whiteSpace=wrap;html=1;" vertex="1" parent="1">
          <mxGeometry x="360" y="980" width="70" height="30" as="geometry" />
        </mxCell>
        <mxCell id="vLwnTfpbYXdkEzxnkrgM-30" value="Ngày Chiếu" style="rounded=0;whiteSpace=wrap;html=1;" vertex="1" parent="1">
          <mxGeometry x="430" y="980" width="70" height="30" as="geometry" />
        </mxCell>
        <mxCell id="vLwnTfpbYXdkEzxnkrgM-31" value="Tên Phim" style="rounded=0;whiteSpace=wrap;html=1;" vertex="1" parent="1">
          <mxGeometry x="360" y="1010" width="140" height="30" as="geometry" />
        </mxCell>
        <mxCell id="vLwnTfpbYXdkEzxnkrgM-32" value="&lt;font style=&quot;font-size: 18px;&quot;&gt;Ảnh&lt;/font&gt;" style="rounded=0;whiteSpace=wrap;html=1;" vertex="1" parent="1">
          <mxGeometry x="520" y="840" width="140" height="130" as="geometry" />
        </mxCell>
        <mxCell id="vLwnTfpbYXdkEzxnkrgM-33" value="Mô tả" style="rounded=0;whiteSpace=wrap;html=1;" vertex="1" parent="1">
          <mxGeometry x="520" y="980" width="70" height="30" as="geometry" />
        </mxCell>
        <mxCell id="vLwnTfpbYXdkEzxnkrgM-34" value="Ngày Chiếu" style="rounded=0;whiteSpace=wrap;html=1;" vertex="1" parent="1">
          <mxGeometry x="590" y="980" width="70" height="30" as="geometry" />
        </mxCell>
        <mxCell id="vLwnTfpbYXdkEzxnkrgM-35" value="Tên Phim" style="rounded=0;whiteSpace=wrap;html=1;" vertex="1" parent="1">
          <mxGeometry x="520" y="1010" width="140" height="30" as="geometry" />
        </mxCell>
        <mxCell id="vLwnTfpbYXdkEzxnkrgM-39" value="" style="rounded=0;whiteSpace=wrap;html=1;" vertex="1" parent="1">
          <mxGeometry x="40" y="1290" width="650" height="540" as="geometry" />
        </mxCell>
        <mxCell id="vLwnTfpbYXdkEzxnkrgM-41" value="&lt;font style=&quot;font-size: 18px;&quot;&gt;Ảnh&lt;/font&gt;" style="rounded=0;whiteSpace=wrap;html=1;" vertex="1" parent="1">
          <mxGeometry x="40" y="1290" width="140" height="130" as="geometry" />
        </mxCell>
        <mxCell id="vLwnTfpbYXdkEzxnkrgM-42" value="Mô tả" style="rounded=0;whiteSpace=wrap;html=1;" vertex="1" parent="1">
          <mxGeometry x="40" y="1430" width="70" height="30" as="geometry" />
        </mxCell>
        <mxCell id="vLwnTfpbYXdkEzxnkrgM-43" value="Ngày Chiếu" style="rounded=0;whiteSpace=wrap;html=1;" vertex="1" parent="1">
          <mxGeometry x="110" y="1430" width="70" height="30" as="geometry" />
        </mxCell>
        <mxCell id="vLwnTfpbYXdkEzxnkrgM-44" value="Tên Phim" style="rounded=0;whiteSpace=wrap;html=1;" vertex="1" parent="1">
          <mxGeometry x="40" y="1460" width="140" height="30" as="geometry" />
        </mxCell>
        <mxCell id="vLwnTfpbYXdkEzxnkrgM-45" value="&lt;font style=&quot;font-size: 18px;&quot;&gt;Ảnh&lt;/font&gt;" style="rounded=0;whiteSpace=wrap;html=1;" vertex="1" parent="1">
          <mxGeometry x="200" y="1290" width="140" height="130" as="geometry" />
        </mxCell>
        <mxCell id="vLwnTfpbYXdkEzxnkrgM-46" value="Mô tả" style="rounded=0;whiteSpace=wrap;html=1;" vertex="1" parent="1">
          <mxGeometry x="200" y="1430" width="70" height="30" as="geometry" />
        </mxCell>
        <mxCell id="vLwnTfpbYXdkEzxnkrgM-47" value="Ngày Chiếu" style="rounded=0;whiteSpace=wrap;html=1;" vertex="1" parent="1">
          <mxGeometry x="270" y="1430" width="70" height="30" as="geometry" />
        </mxCell>
        <mxCell id="vLwnTfpbYXdkEzxnkrgM-48" value="Tên Phim" style="rounded=0;whiteSpace=wrap;html=1;" vertex="1" parent="1">
          <mxGeometry x="200" y="1460" width="140" height="30" as="geometry" />
        </mxCell>
        <mxCell id="vLwnTfpbYXdkEzxnkrgM-49" value="&lt;font style=&quot;font-size: 18px;&quot;&gt;Ảnh&lt;/font&gt;" style="rounded=0;whiteSpace=wrap;html=1;" vertex="1" parent="1">
          <mxGeometry x="360" y="1290" width="140" height="130" as="geometry" />
        </mxCell>
        <mxCell id="vLwnTfpbYXdkEzxnkrgM-50" value="Mô tả" style="rounded=0;whiteSpace=wrap;html=1;" vertex="1" parent="1">
          <mxGeometry x="360" y="1430" width="70" height="30" as="geometry" />
        </mxCell>
        <mxCell id="vLwnTfpbYXdkEzxnkrgM-51" value="Ngày Chiếu" style="rounded=0;whiteSpace=wrap;html=1;" vertex="1" parent="1">
          <mxGeometry x="430" y="1430" width="70" height="30" as="geometry" />
        </mxCell>
        <mxCell id="vLwnTfpbYXdkEzxnkrgM-52" value="Tên Phim" style="rounded=0;whiteSpace=wrap;html=1;" vertex="1" parent="1">
          <mxGeometry x="360" y="1460" width="140" height="30" as="geometry" />
        </mxCell>
        <mxCell id="vLwnTfpbYXdkEzxnkrgM-53" value="&lt;font style=&quot;font-size: 18px;&quot;&gt;Ảnh&lt;/font&gt;" style="rounded=0;whiteSpace=wrap;html=1;" vertex="1" parent="1">
          <mxGeometry x="520" y="1290" width="140" height="130" as="geometry" />
        </mxCell>
        <mxCell id="vLwnTfpbYXdkEzxnkrgM-54" value="Mô tả" style="rounded=0;whiteSpace=wrap;html=1;" vertex="1" parent="1">
          <mxGeometry x="520" y="1430" width="70" height="30" as="geometry" />
        </mxCell>
        <mxCell id="vLwnTfpbYXdkEzxnkrgM-55" value="Ngày Chiếu" style="rounded=0;whiteSpace=wrap;html=1;" vertex="1" parent="1">
          <mxGeometry x="590" y="1430" width="70" height="30" as="geometry" />
        </mxCell>
        <mxCell id="vLwnTfpbYXdkEzxnkrgM-56" value="Tên Phim" style="rounded=0;whiteSpace=wrap;html=1;" vertex="1" parent="1">
          <mxGeometry x="520" y="1460" width="140" height="30" as="geometry" />
        </mxCell>
      </root>
    </mxGraphModel>
  </diagram>
</mxfile>
